<svg width="1148" height="647" viewBox="0 0 1148 647" fill="none" xmlns="http://www.w3.org/2000/svg">
<path d="M726.382 275.568C725.233 272.84 723.307 270.509 720.845 268.864C718.382 267.218 715.491 266.33 712.528 266.309H435.983C432.008 266.311 428.196 267.889 425.385 270.697C422.575 273.504 420.995 277.312 420.992 281.283V630.742C420.995 634.713 422.575 638.52 425.385 641.328C428.196 644.136 432.008 645.714 435.983 645.716H712.538C716.512 645.711 720.322 644.131 723.132 641.324C725.942 638.517 727.523 634.712 727.529 630.742V281.283C727.535 279.321 727.149 277.378 726.392 275.568H726.382ZM724.19 630.742C724.186 633.83 722.956 636.791 720.77 638.975C718.584 641.158 715.62 642.387 712.528 642.391H435.983C432.891 642.39 429.925 641.163 427.738 638.979C425.552 636.795 424.323 633.833 424.321 630.744V281.285C424.326 278.196 425.556 275.236 427.742 273.052C429.928 270.869 432.892 269.64 435.983 269.636H712.538C714.867 269.645 717.14 270.347 719.068 271.652C720.996 272.957 722.491 274.806 723.362 276.964C723.532 277.394 723.678 277.832 723.801 278.278C724.066 279.258 724.2 280.269 724.2 281.285L724.19 630.742Z" fill="#3F3D56"/>
<path d="M668.671 348.815H585.372C583.605 348.815 581.91 348.114 580.66 346.865C579.41 345.617 578.708 343.924 578.708 342.158C578.708 340.393 579.41 338.7 580.66 337.451C581.91 336.203 583.605 335.501 585.372 335.501H668.671C670.439 335.501 672.134 336.203 673.384 337.451C674.634 338.7 675.336 340.393 675.336 342.158C675.336 343.924 674.634 345.617 673.384 346.865C672.134 348.114 670.439 348.815 668.671 348.815V348.815Z" fill="#3F3D56"/>
<path d="M668.671 383.761H585.372C583.605 383.761 581.91 383.06 580.66 381.811C579.41 380.563 578.708 378.87 578.708 377.104C578.708 375.339 579.41 373.646 580.66 372.397C581.91 371.149 583.605 370.448 585.372 370.448H668.671C670.439 370.448 672.134 371.149 673.384 372.397C674.634 373.646 675.336 375.339 675.336 377.104C675.336 378.87 674.634 380.563 673.384 381.811C672.134 383.06 670.439 383.761 668.671 383.761V383.761Z" fill="#3F3D56"/>
<path d="M542.632 403.659H481.758C479.77 403.657 477.864 402.867 476.458 401.463C475.053 400.059 474.262 398.156 474.26 396.17V324.414C474.262 322.429 475.053 320.525 476.458 319.121C477.864 317.717 479.77 316.928 481.758 316.925H542.632C544.62 316.928 546.526 317.717 547.931 319.121C549.337 320.525 550.128 322.429 550.13 324.414V396.17C550.128 398.156 549.337 400.059 547.931 401.463C546.526 402.867 544.62 403.657 542.632 403.659Z" fill="#6C63FF"/>
<path d="M668.093 455.317H479.838C478.07 455.317 476.375 454.616 475.126 453.368C473.876 452.119 473.174 450.426 473.174 448.661C473.174 446.895 473.876 445.202 475.126 443.954C476.375 442.705 478.07 442.004 479.838 442.004H668.093C668.969 442.004 669.835 442.176 670.644 442.511C671.452 442.845 672.187 443.336 672.806 443.954C673.425 444.572 673.915 445.306 674.25 446.113C674.585 446.921 674.758 447.787 674.758 448.661C674.758 449.535 674.585 450.4 674.25 451.208C673.915 452.016 673.425 452.75 672.806 453.368C672.187 453.986 671.452 454.476 670.644 454.811C669.835 455.145 668.969 455.317 668.093 455.317V455.317Z" fill="#CCCCCC"/>
<path d="M668.093 490.263H479.838C478.07 490.263 476.375 489.562 475.126 488.314C473.876 487.065 473.174 485.372 473.174 483.607C473.174 481.841 473.876 480.148 475.126 478.9C476.375 477.651 478.07 476.95 479.838 476.95H668.093C669.861 476.95 671.556 477.651 672.806 478.9C674.056 480.148 674.758 481.841 674.758 483.607C674.758 485.372 674.056 487.065 672.806 488.314C671.556 489.562 669.861 490.263 668.093 490.263V490.263Z" fill="#CCCCCC"/>
<path d="M668.093 525.209H479.838C478.07 525.209 476.375 524.508 475.126 523.26C473.876 522.011 473.174 520.318 473.174 518.553C473.174 516.787 473.876 515.094 475.126 513.846C476.375 512.597 478.07 511.896 479.838 511.896H668.093C669.861 511.896 671.556 512.597 672.806 513.846C674.056 515.094 674.758 516.787 674.758 518.553C674.758 520.318 674.056 522.011 672.806 523.26C671.556 524.508 669.861 525.209 668.093 525.209V525.209Z" fill="#CCCCCC"/>
<path d="M668.093 560.155H479.838C478.07 560.155 476.375 559.454 475.126 558.206C473.876 556.957 473.174 555.264 473.174 553.499C473.174 551.733 473.876 550.04 475.126 548.792C476.375 547.543 478.07 546.842 479.838 546.842H668.093C669.861 546.842 671.556 547.543 672.806 548.792C674.056 550.04 674.758 551.733 674.758 553.499C674.758 555.264 674.056 556.957 672.806 558.206C671.556 559.454 669.861 560.155 668.093 560.155V560.155Z" fill="#CCCCCC"/>
<path d="M668.093 595.101H479.838C478.07 595.101 476.375 594.4 475.126 593.152C473.876 591.903 473.174 590.21 473.174 588.444C473.174 586.679 473.876 584.986 475.126 583.738C476.375 582.489 478.07 581.788 479.838 581.788H668.093C669.861 581.788 671.556 582.489 672.806 583.738C674.056 584.986 674.758 586.679 674.758 588.444C674.758 590.21 674.056 591.903 672.806 593.152C671.556 594.4 669.861 595.101 668.093 595.101V595.101Z" fill="#CCCCCC"/>
<path d="M578.939 182.11C614.459 182.11 643.253 153.348 643.253 117.869C643.253 82.3897 614.459 53.6281 578.939 53.6281C543.42 53.6281 514.626 82.3897 514.626 117.869C514.626 153.348 543.42 182.11 578.939 182.11Z" fill="#6C63FF"/>
<path d="M572.566 142.375C571.119 142.377 569.711 141.91 568.553 141.043L568.482 140.989L553.367 129.44C552.666 128.904 552.078 128.236 551.635 127.473C551.193 126.71 550.906 125.867 550.79 124.993C550.674 124.119 550.731 123.231 550.959 122.379C551.187 121.527 551.581 120.729 552.118 120.029C552.655 119.329 553.324 118.742 554.089 118.301C554.853 117.86 555.697 117.574 556.572 117.459C557.447 117.344 558.336 117.403 559.189 117.631C560.041 117.86 560.841 118.254 561.54 118.791L571.33 126.29L594.465 96.1427C595.548 94.7312 597.148 93.8074 598.914 93.5744C600.679 93.3415 602.465 93.8186 603.878 94.9007L603.88 94.9022L603.736 95.1013L603.884 94.9022C605.295 95.9859 606.219 97.5848 606.452 99.3479C606.685 101.111 606.208 102.895 605.126 104.307L577.915 139.751C577.285 140.567 576.476 141.228 575.549 141.682C574.623 142.136 573.604 142.37 572.572 142.367L572.566 142.375Z" fill="white"/>
<path d="M155.526 88.5224C179.595 88.5224 199.107 69.0324 199.107 44.9903C199.107 20.9482 179.595 1.45819 155.526 1.45819C131.456 1.45819 111.944 20.9482 111.944 44.9903C111.944 69.0324 131.456 88.5224 155.526 88.5224Z" fill="#CCCCCC"/>
<path d="M151.206 61.5951C150.226 61.5968 149.271 61.2802 148.487 60.693L148.439 60.6572L138.196 52.8237C137.266 52.0812 136.664 51.0039 136.52 49.8232C136.376 48.6425 136.701 47.4523 137.425 46.5081C138.149 45.5638 139.215 44.9406 140.394 44.7722C141.572 44.6039 142.77 44.9038 143.73 45.6076L150.365 50.6892L166.041 30.2672C166.775 29.3108 167.86 28.6849 169.056 28.5271C170.252 28.3694 171.462 28.6927 172.419 29.426L172.42 29.4269L172.323 29.5583L172.422 29.4289C173.379 30.1633 174.004 31.2466 174.162 32.4411C174.32 33.6356 173.997 34.8439 173.264 35.8008L154.824 59.8229C154.398 60.3766 153.849 60.8246 153.221 61.1323C152.594 61.44 151.903 61.599 151.204 61.5971L151.206 61.5951Z" fill="white"/>
<path d="M277.995 147.06C277.09 144.915 275.575 143.081 273.637 141.786C271.7 140.491 269.425 139.792 267.094 139.774H49.4848C46.357 139.776 43.3577 141.018 41.146 143.227C38.9343 145.436 37.691 148.432 37.6895 151.557V426.53C37.691 429.655 38.9343 432.65 41.146 434.86C43.3577 437.069 46.357 438.311 49.4848 438.312H267.094C270.221 438.308 273.219 437.065 275.43 434.857C277.641 432.648 278.886 429.654 278.89 426.53V151.557C278.895 150.013 278.59 148.484 277.995 147.06ZM276.27 426.532C276.266 428.96 275.298 431.287 273.579 433.004C271.861 434.721 269.531 435.687 267.1 435.692H49.4848C47.0528 435.692 44.7204 434.727 43.0007 433.009C41.281 431.291 40.3149 428.962 40.3149 426.532V151.557C40.3196 149.129 41.2873 146.802 43.0059 145.085C44.7246 143.368 47.0543 142.402 49.4848 142.397H267.094C268.928 142.404 270.718 142.958 272.235 143.986C273.752 145.015 274.928 146.472 275.612 148.171C275.746 148.51 275.861 148.855 275.957 149.205C276.166 149.976 276.272 150.772 276.272 151.57L276.27 426.532Z" fill="#CCCCCC"/>
<path d="M232.577 204.696H167.032C165.641 204.696 164.308 204.144 163.324 203.162C162.341 202.18 161.788 200.848 161.788 199.458C161.788 198.069 162.341 196.737 163.324 195.755C164.308 194.772 165.641 194.22 167.032 194.22H232.575C233.966 194.22 235.3 194.772 236.283 195.755C237.267 196.737 237.819 198.069 237.819 199.458C237.819 200.848 237.267 202.18 236.283 203.162C235.3 204.144 233.966 204.696 232.575 204.696H232.577Z" fill="#CCCCCC"/>
<path d="M232.577 232.195H167.032C165.641 232.195 164.308 231.643 163.324 230.661C162.341 229.678 161.788 228.346 161.788 226.957C161.788 225.568 162.341 224.236 163.324 223.253C164.308 222.271 165.641 221.719 167.032 221.719H232.575C233.966 221.719 235.3 222.271 236.283 223.253C237.267 224.236 237.819 225.568 237.819 226.957C237.819 228.346 237.267 229.678 236.283 230.661C235.3 231.643 233.966 232.195 232.575 232.195H232.577Z" fill="#CCCCCC"/>
<path d="M133.4 247.852H85.501C83.937 247.85 82.4376 247.229 81.3317 246.124C80.2258 245.02 79.6039 243.522 79.6023 241.96V185.499C79.6039 183.937 80.2258 182.439 81.3317 181.334C82.4376 180.23 83.937 179.608 85.501 179.607H133.4C134.964 179.609 136.463 180.23 137.569 181.335C138.675 182.439 139.297 183.937 139.299 185.499V241.96C139.297 243.522 138.675 245.02 137.569 246.124C136.464 247.229 134.964 247.85 133.4 247.852V247.852Z" fill="#CCCCCC"/>
<path d="M232.121 288.499H83.9919C82.6011 288.499 81.2674 287.947 80.2839 286.965C79.3005 285.982 78.748 284.65 78.748 283.261C78.748 281.872 79.3005 280.539 80.2839 279.557C81.2674 278.575 82.6011 278.023 83.9919 278.023H232.121C233.512 278.023 234.845 278.575 235.829 279.557C236.812 280.539 237.365 281.872 237.365 283.261C237.365 284.65 236.812 285.982 235.829 286.965C234.845 287.947 233.512 288.499 232.121 288.499V288.499Z" fill="#CCCCCC"/>
<path d="M232.121 316.006H83.9919C82.6011 316.006 81.2674 315.454 80.2839 314.471C79.3005 313.489 78.748 312.157 78.748 310.768C78.748 309.378 79.3005 308.046 80.2839 307.064C81.2674 306.082 82.6011 305.53 83.9919 305.53H232.121C233.512 305.53 234.845 306.082 235.829 307.064C236.812 308.046 237.365 309.378 237.365 310.768C237.365 312.157 236.812 313.489 235.829 314.471C234.845 315.454 233.512 316.006 232.121 316.006Z" fill="#CCCCCC"/>
<path d="M232.121 343.494H83.9919C82.6011 343.494 81.2674 342.942 80.2839 341.96C79.3005 340.978 78.748 339.646 78.748 338.256C78.748 336.867 79.3005 335.535 80.2839 334.553C81.2674 333.57 82.6011 333.018 83.9919 333.018H232.121C233.512 333.018 234.845 333.57 235.829 334.553C236.812 335.535 237.365 336.867 237.365 338.256C237.365 339.646 236.812 340.978 235.829 341.96C234.845 342.942 233.512 343.494 232.121 343.494V343.494Z" fill="#CCCCCC"/>
<path d="M232.121 370.999H83.9919C82.6011 370.999 81.2674 370.447 80.2839 369.465C79.3005 368.483 78.748 367.15 78.748 365.761C78.748 364.372 79.3005 363.04 80.2839 362.057C81.2674 361.075 82.6011 360.523 83.9919 360.523H232.121C233.512 360.523 234.845 361.075 235.829 362.057C236.812 363.04 237.365 364.372 237.365 365.761C237.365 367.15 236.812 368.483 235.829 369.465C234.845 370.447 233.512 370.999 232.121 370.999Z" fill="#CCCCCC"/>
<path d="M232.121 398.49H83.9919C82.6011 398.49 81.2674 397.938 80.2839 396.956C79.3005 395.973 78.748 394.641 78.748 393.252C78.748 391.863 79.3005 390.531 80.2839 389.548C81.2674 388.566 82.6011 388.014 83.9919 388.014H232.121C233.512 388.014 234.845 388.566 235.829 389.548C236.812 390.531 237.365 391.863 237.365 393.252C237.365 394.641 236.812 395.973 235.829 396.956C234.845 397.938 233.512 398.49 232.121 398.49Z" fill="#CCCCCC"/>
<path d="M3.015 439.461H308.882C309.298 439.461 309.697 439.296 309.991 439.002C310.285 438.708 310.45 438.31 310.45 437.894C310.45 437.479 310.285 437.08 309.991 436.786C309.697 436.492 309.298 436.327 308.882 436.327H3.015C2.80897 436.326 2.60473 436.365 2.41394 436.443C2.22315 436.521 2.04955 436.635 1.90304 436.78C1.75653 436.924 1.64 437.097 1.56008 437.286C1.48015 437.476 1.43839 437.679 1.43722 437.885C1.43605 438.091 1.47547 438.295 1.55323 438.486C1.631 438.676 1.74559 438.85 1.89045 438.996C2.0353 439.142 2.20759 439.259 2.39749 439.339C2.58738 439.418 2.79115 439.46 2.99718 439.461H3.015Z" fill="#CCCCCC"/>
<path d="M992.784 88.5224C1016.85 88.5224 1036.37 69.0324 1036.37 44.9903C1036.37 20.9482 1016.85 1.45819 992.784 1.45819C968.715 1.45819 949.203 20.9482 949.203 44.9903C949.203 69.0324 968.715 88.5224 992.784 88.5224Z" fill="#CCCCCC"/>
<path d="M988.464 61.5951C987.484 61.5968 986.53 61.2802 985.745 60.693L985.698 60.6572L975.455 52.8237C974.525 52.0812 973.923 51.0039 973.779 49.8232C973.634 48.6425 973.959 47.4523 974.683 46.5081C975.407 45.5638 976.473 44.9406 977.652 44.7722C978.831 44.6039 980.029 44.9038 980.989 45.6076L987.623 50.6892L1003.3 30.2672C1004.03 29.3108 1005.12 28.6849 1006.31 28.5271C1007.51 28.3694 1008.72 28.6927 1009.68 29.426L1009.68 29.4269L1009.58 29.5583L1009.68 29.4289C1010.64 30.1633 1011.26 31.2466 1011.42 32.4411C1011.58 33.6356 1011.26 34.8439 1010.52 35.8008L992.083 59.8229C991.656 60.3766 991.108 60.8246 990.48 61.1323C989.852 61.44 989.162 61.599 988.463 61.5971L988.464 61.5951Z" fill="white"/>
<path d="M1115.25 147.06C1114.35 144.915 1112.83 143.081 1110.9 141.786C1108.96 140.491 1106.68 139.792 1104.35 139.774H886.744C883.616 139.776 880.616 141.018 878.405 143.227C876.193 145.436 874.95 148.432 874.948 151.557V426.53C874.95 429.655 876.193 432.65 878.405 434.86C880.616 437.069 883.616 438.311 886.744 438.312H1104.35C1107.48 438.308 1110.48 437.065 1112.69 434.857C1114.9 432.648 1116.14 429.654 1116.15 426.53V151.557C1116.15 150.013 1115.85 148.484 1115.25 147.06ZM1113.53 426.532C1113.52 428.96 1112.56 431.287 1110.84 433.004C1109.12 434.721 1106.79 435.687 1104.36 435.692H886.744C885.539 435.692 884.347 435.455 883.234 434.995C882.122 434.534 881.111 433.86 880.259 433.009C879.408 432.159 878.732 431.149 878.272 430.038C877.811 428.926 877.574 427.735 877.574 426.532V426.532V151.557C877.578 149.129 878.546 146.802 880.265 145.085C881.983 143.368 884.313 142.402 886.744 142.397H1104.35C1106.19 142.404 1107.98 142.958 1109.49 143.986C1111.01 145.015 1112.19 146.472 1112.87 148.171C1113 148.51 1113.12 148.855 1113.22 149.205C1113.42 149.976 1113.53 150.772 1113.53 151.57L1113.53 426.532Z" fill="#CCCCCC"/>
<path d="M1069.84 204.696H1004.29C1002.9 204.696 1001.57 204.144 1000.58 203.162C999.599 202.18 999.047 200.848 999.047 199.458C999.047 198.069 999.599 196.737 1000.58 195.755C1001.57 194.772 1002.9 194.22 1004.29 194.22H1069.83C1071.22 194.22 1072.56 194.772 1073.54 195.755C1074.53 196.737 1075.08 198.069 1075.08 199.458C1075.08 200.848 1074.53 202.18 1073.54 203.162C1072.56 204.144 1071.22 204.696 1069.83 204.696H1069.84Z" fill="#CCCCCC"/>
<path d="M1069.84 232.195H1004.29C1002.9 232.195 1001.57 231.643 1000.58 230.661C999.599 229.678 999.047 228.346 999.047 226.957C999.047 225.568 999.599 224.236 1000.58 223.253C1001.57 222.271 1002.9 221.719 1004.29 221.719H1069.83C1071.22 221.719 1072.56 222.271 1073.54 223.253C1074.53 224.236 1075.08 225.568 1075.08 226.957C1075.08 228.346 1074.53 229.678 1073.54 230.661C1072.56 231.643 1071.22 232.195 1069.83 232.195H1069.84Z" fill="#CCCCCC"/>
<path d="M970.659 247.852H922.76C921.196 247.85 919.696 247.229 918.59 246.124C917.484 245.02 916.862 243.522 916.861 241.96V185.499C916.862 183.937 917.484 182.439 918.59 181.334C919.696 180.23 921.196 179.608 922.76 179.607H970.659C972.223 179.609 973.722 180.23 974.827 181.335C975.933 182.439 976.555 183.937 976.557 185.499V241.96C976.556 243.522 975.934 245.02 974.828 246.124C973.722 247.229 972.223 247.85 970.659 247.852V247.852Z" fill="#CCCCCC"/>
<path d="M1069.38 288.499H921.251C919.86 288.499 918.526 287.947 917.543 286.965C916.559 285.982 916.007 284.65 916.007 283.261C916.007 281.872 916.559 280.539 917.543 279.557C918.526 278.575 919.86 278.023 921.251 278.023H1069.38C1070.77 278.023 1072.1 278.575 1073.09 279.557C1074.07 280.539 1074.62 281.872 1074.62 283.261C1074.62 284.65 1074.07 285.982 1073.09 286.965C1072.1 287.947 1070.77 288.499 1069.38 288.499V288.499Z" fill="#CCCCCC"/>
<path d="M1069.38 316.006H921.251C919.86 316.006 918.526 315.454 917.543 314.471C916.559 313.489 916.007 312.157 916.007 310.768C916.007 309.378 916.559 308.046 917.543 307.064C918.526 306.082 919.86 305.53 921.251 305.53H1069.38C1070.77 305.53 1072.1 306.082 1073.09 307.064C1074.07 308.046 1074.62 309.378 1074.62 310.768C1074.62 312.157 1074.07 313.489 1073.09 314.471C1072.1 315.454 1070.77 316.006 1069.38 316.006Z" fill="#CCCCCC"/>
<path d="M1069.38 343.494H921.251C919.86 343.494 918.526 342.942 917.543 341.96C916.559 340.978 916.007 339.646 916.007 338.256C916.007 336.867 916.559 335.535 917.543 334.553C918.526 333.57 919.86 333.018 921.251 333.018H1069.38C1070.77 333.018 1072.1 333.57 1073.09 334.553C1074.07 335.535 1074.62 336.867 1074.62 338.256C1074.62 339.646 1074.07 340.978 1073.09 341.96C1072.1 342.942 1070.77 343.494 1069.38 343.494V343.494Z" fill="#CCCCCC"/>
<path d="M1069.38 370.999H921.251C919.86 370.999 918.526 370.447 917.543 369.465C916.559 368.483 916.007 367.15 916.007 365.761C916.007 364.372 916.559 363.04 917.543 362.057C918.526 361.075 919.86 360.523 921.251 360.523H1069.38C1070.77 360.523 1072.1 361.075 1073.09 362.057C1074.07 363.04 1074.62 364.372 1074.62 365.761C1074.62 367.15 1074.07 368.483 1073.09 369.465C1072.1 370.447 1070.77 370.999 1069.38 370.999Z" fill="#CCCCCC"/>
<path d="M1069.38 398.49H921.251C919.86 398.49 918.526 397.938 917.543 396.956C916.559 395.973 916.007 394.641 916.007 393.252C916.007 391.863 916.559 390.531 917.543 389.548C918.526 388.566 919.86 388.014 921.251 388.014H1069.38C1070.77 388.014 1072.1 388.566 1073.09 389.548C1074.07 390.531 1074.62 391.863 1074.62 393.252C1074.62 394.641 1074.07 395.973 1073.09 396.956C1072.1 397.938 1070.77 398.49 1069.38 398.49Z" fill="#CCCCCC"/>
<path d="M840.274 439.461H1146.14C1146.56 439.461 1146.96 439.296 1147.25 439.002C1147.54 438.708 1147.71 438.31 1147.71 437.894C1147.71 437.479 1147.54 437.08 1147.25 436.786C1146.96 436.492 1146.56 436.327 1146.14 436.327H840.274C840.068 436.326 839.863 436.365 839.673 436.443C839.482 436.521 839.308 436.635 839.162 436.78C839.015 436.924 838.899 437.097 838.819 437.286C838.739 437.476 838.697 437.679 838.696 437.885C838.695 438.091 838.734 438.295 838.812 438.486C838.89 438.676 839.004 438.85 839.149 438.996C839.294 439.142 839.466 439.259 839.656 439.339C839.846 439.418 840.05 439.46 840.256 439.461H840.274Z" fill="#CCCCCC"/>
<path d="M378.213 646.91H766.94C767.469 646.91 767.976 646.7 768.349 646.326C768.723 645.953 768.933 645.446 768.933 644.918C768.933 644.39 768.723 643.884 768.349 643.51C767.976 643.137 767.469 642.927 766.94 642.927H378.213C377.684 642.927 377.177 643.137 376.803 643.51C376.429 643.884 376.219 644.39 376.219 644.918C376.219 645.446 376.429 645.953 376.803 646.326C377.177 646.7 377.684 646.91 378.213 646.91Z" fill="#3F3D56"/>
</svg>
